<svg width="511" height="512" viewBox="-2 0 511 512" xmlns="http://www.w3.org/2000/svg">
    <g id="cellphone" stroke="#000000" stroke-width="12">
    <path d="m415.433594 460.488281h-257.460938c-13.511718 0-24.460937-10.949219-24.460937-24.460937v-404.066406c0-13.507813 10.949219-24.460938 24.460937-24.460938h257.460938c13.507812 0 24.460937 10.953125 24.460937 24.460938v404.066406c0 13.511718-10.953125 24.460937-24.460937 24.460937zm0 0" fill="#426175"/>
    <path d="m133.511719 59.28125h306.382812v350.210938h-306.382812zm0 0" fill="#f2f2f2"/>
    </g>

    <g id="monitor">
        <path d="m262.382812 323.484375h-230.0625c-13.429687 0-24.320312-10.886719-24.320312-24.320313v-160.035156c0-13.433594 10.890625-24.320312 24.320312-24.320312h230.0625c13.429688 0 24.320313 10.886718 24.320313 24.320312v160.035156c0 13.433594-10.890625 24.320313-24.320313 24.320313zm0 0" fill="#88dbfd"/>
        <path d="m55.003906 223.199219 36.914063-24.144531c.5625-.421876 1.402343-.5625 2.105469-.5625 2.945312 0 6.738281 3.089843 6.738281 7.019531 0 1.683593-.84375 3.230469-2.105469 4.070312l-29.476562 19.371094 29.476562 19.371094c1.261719.699219 2.105469 2.246093 2.105469 4.070312 0 3.929688-3.792969 6.875-6.738281 6.875-.703126 0-1.542969-.140625-2.105469-.558593l-36.914063-24.144532c-2.105468-1.402344-3.089844-3.789062-3.089844-5.613281s.984376-4.351563 3.089844-5.753906zm0 0"/>
        <path d="m178.800781 165.085938c0 .84375-.140625 1.546874-.5625 2.246093l-51.515625 102.75c-.839844 1.683594-2.664062 2.664063-4.628906 2.664063-3.230469 0-5.476562-2.664063-5.476562-5.191406 0-.703126.140624-1.402344.421874-2.105469l51.652344-103.167969c.84375-1.824219 2.386719-2.527344 4.210938-2.527344 2.808594 0 5.898437 2.105469 5.898437 5.332032zm0 0"/>
        <path d="m240.277344 234.566406-36.917969 24.144532c-.5625.421874-1.261719.5625-1.964844.5625-3.089843 0-6.738281-2.949219-6.738281-6.878907 0-1.824219.84375-3.367187 1.964844-4.070312l29.617187-19.371094-29.617187-19.367187c-1.121094-.84375-1.964844-2.386719-1.964844-4.070313 0-3.933594 3.648438-7.019531 6.738281-7.019531.703125 0 1.402344.140625 1.964844.5625l36.917969 24.140625c2.105468 1.40625 3.085937 3.933593 3.085937 5.757812 0 1.820313-.84375 4.207031-3.085937 5.609375zm0 0"/>
        <path d="m294.203125 299.164062v-160.035156c0-17.546875-14.277344-31.820312-31.820313-31.820312h-230.0625c-17.546874 0-31.820312 14.273437-31.820312 31.820312v160.035156c0 17.546876 14.273438 31.820313 31.820312 31.820313h230.0625c17.542969 0 31.820313-14.273437 31.820313-31.820313zm-278.703125 0v-160.035156c0-9.273437 7.546875-16.820312 16.820312-16.820312h230.0625c9.273438 0 16.820313 7.546875 16.820313 16.820312v160.035156c0 9.273438-7.546875 16.820313-16.820313 16.820313h-230.0625c-9.273437 0-16.820312-7.546875-16.820312-16.820313zm0 0"/>
    </g>
    
    <path id="engranaje" d="m398.382812 504.5c-7.398437 0-13.417968-6.019531-13.417968-13.421875v-4.273437c0-2.089844-1.363282-3.933594-3.3125-4.488282-5.519532-1.566406-10.875-3.757812-15.917969-6.515625-.65625-.359375-1.398437-.546875-2.148437-.546875-1.234376 0-2.441407.503906-3.320313 1.382813l-2.980469 2.980469c-2.535156 2.53125-5.90625 3.929687-9.488281 3.929687-3.585937 0-6.953125-1.398437-9.488281-3.933594l-7.292969-7.289062c-2.53125-2.535157-3.929687-5.902344-3.929687-9.488281 0-3.585938 1.398437-6.953126 3.929687-9.488282l2.980469-2.980468c1.457031-1.457032 1.800781-3.707032.832031-5.472657-2.753906-5.042969-4.945313-10.398437-6.515625-15.914062-.550781-1.949219-2.398438-3.3125-4.484375-3.3125h-4.277344c-7.398437 0-13.417969-6.019531-13.417969-13.417969v-10.3125c0-7.398438 6.019532-13.417969 13.417969-13.417969h4.640625c2.066406 0 3.917969-1.34375 4.5-3.261719 1.621094-5.347656 3.832032-10.535156 6.578125-15.414062 1.007813-1.789062.679688-4.070312-.792969-5.542969l-3.460937-3.460937c-2.535156-2.53125-3.929687-5.902344-3.929687-9.488282 0-3.585937 1.398437-6.957031 3.929687-9.488281l7.292969-7.292969c2.535156-2.535156 5.902344-3.929687 9.488281-3.929687s6.953125 1.394531 9.488281 3.929687l3.851563 3.855469c.878906.875 2.085937 1.375 3.316406 1.375.75 0 1.464844-.175781 2.125-.527343 4.785156-2.539063 9.847656-4.578126 15.054687-6.058594 1.960938-.558594 3.332032-2.398438 3.332032-4.476563v-5.632812c0-7.402344 6.019531-13.421875 13.417968-13.421875h10.3125c7.398438 0 13.417969 6.019531 13.417969 13.421875v6.023437c0 2.039063 1.335938 3.871094 3.25 4.449219 5.050781 1.53125 9.960938 3.589844 14.601563 6.121094.671875.371093 1.433594.5625 2.199218.5625 1.246094 0 2.421876-.488281 3.308594-1.371094l4.320313-4.320313c2.535156-2.535156 5.902343-3.929687 9.488281-3.929687s6.957031 1.394531 9.488281 3.929687l7.292969 7.289063c5.230469 5.234375 5.230469 13.746094 0 18.980469l-4.320312 4.320312c-1.457032 1.453125-1.789063 3.71875-.8125 5.507813 2.535156 4.640625 4.59375 9.550781 6.121093 14.597656.582031 1.914063 2.410157 3.253906 4.453125 3.253906h6.023438c7.398437 0 13.417968 6.019531 13.417968 13.417969v10.308594c0 7.402344-6.019531 13.421875-13.417968 13.421875h-5.632813c-2.078125 0-3.917969 1.367187-4.476562 3.328125-1.480469 5.207031-3.519531 10.269531-6.058594 15.058594-.9375 1.765624-.585937 4 .851563 5.4375l3.851562 3.855468c2.535156 2.535156 3.929688 5.902344 3.929688 9.488282 0 3.585937-1.394532 6.953124-3.929688 9.488281l-7.292969 7.289062c-2.53125 2.535157-5.902343 3.933594-9.488281 3.933594s-6.953125-1.398437-9.488281-3.933594l-3.457031-3.457031c-.890626-.886719-2.066407-1.375-3.316407-1.375-.78125 0-1.550781.199219-2.230469.582031-4.878906 2.742188-10.066406 4.957031-15.410156 6.578125-1.921875.582032-3.265625 2.433594-3.265625 4.5v4.636719c0 7.402344-6.019531 13.421875-13.417969 13.421875zm5.15625-128.949219c-17.394531 0-31.542968 14.148438-31.542968 31.542969 0 17.390625 14.148437 31.542969 31.542968 31.542969 17.390626 0 31.539063-14.152344 31.539063-31.542969s-14.148437-31.542969-31.539063-31.542969zm0 0" fill="#fd715c" stroke-width="12" stroke="#000000"/>
</svg>